<?xml version="1.0" encoding="UTF-8"?>
<svg viewBox="0 0 70 70" xml:space="preserve" xmlns="http://www.w3.org/2000/svg"><g transform="matrix(1.25,0,0,-1.25,0,70)"><g transform="scale(.022)"><path d="m2246.9 1220.1c-84.56-84.54-942.23-942.24-1026.8-1026.8-84.55 84.559-942.22 942.26-1026.8 1026.8 84.547 84.56 942.22 942.25 1026.8 1026.8 84.55-84.54 942.23-942.23 1026.8-1026.8zm-2246.9 0 1220.1-1220.1 1220.1 1220.1-1220.1 1220.1-1220.1-1220.1" fill="#ef2f32"/><path d="m1143.2 803.83h-237.66v-100.09h660.34v100.09h-268.04c-24.77-6.102-50.66-9.352-77.31-9.352-26.66 0-52.55 3.25-77.33 9.352" fill="#100f0d"/><path d="m1220.6 887.16c-127.05 0-230.03 102.98-230.03 230.03 0 127.02 102.98 230.01 230.03 230.01 127.02 0 230.02-102.99 230.02-230.01 0-127.05-103-230.03-230.02-230.03zm299.68 236.61 10.59 82.35c-12.99 45.46-35.72 86.8-65.76 121.66l-20.66-17.36-14.32 18.02-8.01 40.78c-30.26 24.22-64.96 43.1-102.7 55.24l-16.79-25.94-11.12 33.54c-22.83 5.11-46.56 7.83-70.91 7.83-25.86 0-51-3.06-75.1-8.8l0.32-14-31.71-8.04-5.7 10.79c-27.01-10.02-52.33-23.55-75.37-40.03l7.89-19.53-31 1.36c-31.609-27.26-57.87-60.55-77.003-98.08l0.636-35.9-19.484-159.22-14.754 18.27c12.922-137.92 112.62-250.59 243.94-282.88 24.78-6.102 50.67-9.352 77.33-9.352 26.65 0 52.54 3.25 77.31 9.352 115.61 28.43 206.71 119.14 235.67 234.53l-12.24-19.59-1.06 105" fill="#100f0d"/><path d="m1190.2 1995.5v-80.08l-21.01-109.21-27.05-67.87-34.25 44.94-15.17 29.24-8.66 30.34-55.24 67.15 13.07-49.47-27.15-51.26-10.82-75.81 13.46-108.78-48.615 25.68-32.004 47.35-43.324 51.98 11.918-73.64 0.57-124.02 12.028-65.01-59.164 36.31-53.082 40.07 11.914-114.8v-142.97l24.918-129.98 25.992-50.89 30.734-38.06 14.754-18.27 19.484 159.22-0.636 35.9-0.719 39.36-16.93 68.28-7.695 50.34 44.297-43.22 26.765-15.31 31.285-1.37 31-1.36-7.89 19.53-13.96 34.55 24.59 83.59 11.58 85.02 24.39-108.7 28.77-54.43 5.7-10.79 31.71 8.04-0.32 14-1.32 58.12 48.4 94.82 1.06 73.18 59.93-71.06 12.72-77.94 25.22-76.15 11.12-33.54 16.79 25.94 70.41 108.66 32.29-163.9 8.01-40.78 14.32-18.02 20.66 17.36 29.2 24.53 45.06 31.82-0.53-116.13-7.97-61.88-10.59-82.35 1.06-105 12.24 19.59 69.95 111.93 37.3 110.94v135.4l-36.83 152.71v-24.92l-40.08-37.91-46.57-21.65 13.54 63.49 23.85 79.54-25.98 93.32-14.66-39.23-25.98-27.04-45.5-21.66 10.83 62.78v74.73l-62.81 135.39v-28.16l-13-60.66-24.91-47.66-47.65-23.82v110.48l-26.01 86.64-35.74 85.57-25.83 105.18-27.24-118.25" fill="#100f0d"/></g></g></svg>
