<?xml version="1.0" encoding="UTF-8"?>
<svg viewBox="0 0 70 70" xml:space="preserve" xmlns="http://www.w3.org/2000/svg"><g transform="matrix(1.25,0,0,-1.25,0,70)"><g transform="scale(.022)"><path d="m2246.9 1220.1c-84.56-84.54-942.23-942.24-1026.8-1026.8-84.55 84.559-942.22 942.26-1026.8 1026.8 84.547 84.56 942.22 942.25 1026.8 1026.8 84.55-84.54 942.23-942.23 1026.8-1026.8zm-2246.9 0 1220.1-1220.1 1220.1 1220.1-1220.1 1220.1-1220.1-1220.1" fill="#ef2f32"/><path d="m1362.6 1861.2-33.19 15.17-173.06-493.54c10.28-3.68 20.24-8.37 29.55-13.99l176.7 492.36" fill="#100f0d"/><path d="m1338.9 1624.1-17.07 10.43-134.84-266.37c0.73-0.45 1.44-0.91 2.16-1.36l149.75 257.3" fill="#100f0d"/><path d="m1152 1384.4 102.52 318.44-18.97 11.37-84.42-329.51c0.29-0.1 0.58-0.21 0.87-0.3" fill="#100f0d"/><path d="m1174.4 1593.4 14.74 21.5 25.47 27.73-14.03 45.42-19.25 0.34-8.31-21.15-16.3 6.42-8.32-40.39 17.34-8.15 8.66-31.72" fill="#100f0d"/><path d="m1331.1 1571.3-10.78-15.14-6.22-31.5 21.76-18.86 15.56 18.86 4.35 21.35-9.54 25.5-7.46-7.88-7.67 7.67" fill="#100f0d"/><path d="m1241.4 1359.6-2.58 6.02-20.78-22.65c1.11-1.19 2.24-2.38 3.31-3.6l20.05 20.23" fill="#100f0d"/><path d="m1282 1400.7 299.06 301.92-17.2 17.21-303.24-330.36 15.82 11.11 5.56 0.12" fill="#100f0d"/><path d="m1131.1 1248.2 77.17 77.91-5.59 0.06-71.58-77.97" fill="#100f0d"/><path d="m1580.2 1549.4-399.27-281.41 399.27 247.84v33.57" fill="#100f0d"/><path d="m1456.4 1365.3-1.72 19.78-234.93-111 236.65 91.22" fill="#100f0d"/><path d="m1243.8 1354.1 31.84 14.63 6.89-24.09 50.77 41.3 28.4 52.49-44.75-37-34.89-0.74-5.56-0.12-15.82-11.11-24.63-17.29 2.8-6.49 2.58-6.02 2.37-5.56" fill="#100f0d"/><path d="m1524.3 1421.2-7.76-20.66 71.43-8.6-47.34 47.32-16.33-18.06" fill="#100f0d"/><path d="m1720.5 1508.1 48.18-32.7-0.86 58.52-31.83 54.21-14.63-45.6-38.72-1.73-11.2-8.61-5.16-32.7 30.12-17.21 24.1 25.82" fill="#100f0d"/><path d="m1877.6 1412.6-9.78 20.61-703.06-182.28 712.84 161.67" fill="#100f0d"/><path d="m1191 1229.5 772.33 104.92v26.04l-772.41-130.89 0.08-0.07" fill="#100f0d"/><path d="m1471.8 1205.3 7.92-8.53 60.93-1.93 24.46 27.82-85.72 37.98-22.78-21.71-32.56-10.85 7.7-29.78 13.3-0.43 26.75 7.43" fill="#100f0d"/><path d="m1432.8 1194.5 1.02 0.29-1.1 0.04 0.08-0.33" fill="#100f0d"/><path d="m1485.9 1190.2 47.73-3.25 2.66 3.02-52.49 2.49 2.1-2.26" fill="#100f0d"/><path d="m1432.7 1194.8 1.1-0.04 50.05-2.37 52.49-2.49 339.12-16.05-14.11 10.85-320.66 10.16-60.93 1.93-34.67 1.1-13.3 0.43-214.15 6.77 0.07-0.11 214.99-10.18" fill="#100f0d"/><path d="m1344.4 1143 3.83 5.3 36-15.56 126.63-32.63 5.43 36.9-276.91 38.77c-0.66-1.74-1.34-3.47-2.07-5.19l107.09-27.59" fill="#100f0d"/><path d="m1344.4 1143-4.66-6.49-32.59 6.04-9.03-16.44 32.85-24.38 86.55-14.78 1.37 20.82-14.25 16.15-20.41 8.82-36 15.56-3.83-5.3" fill="#100f0d"/><path d="m1409.8 1038.2-10.13 20.54-171.17 94.09c-0.5-0.89-1-1.79-1.53-2.67l182.83-111.96" fill="#100f0d"/><path d="m1132.6 1206 22.36-17.46 0.92 0.62-23.28 16.84" fill="#100f0d"/><path d="m1415 985.5 9.36 9.359-202.81 146.8c-0.76-1.1-1.53-2.2-2.31-3.28l195.76-152.88" fill="#100f0d"/><path d="m1363.3 999.73-9.35 21.16-144.14 105.79c-0.57-0.63-1.14-1.26-1.71-1.89l155.2-125.06" fill="#100f0d"/><path d="m917.81 1049.3 14.586-16.2 16.2 7.3 8.105-8.11 16.207 9.72 6.481 21.87-15.399 9.74h-23.566l-19.313-17.71-3.301-6.61" fill="#100f0d"/><path d="m768.73 948.06 17.011-16.207 135.38 124.1 19.313 17.71 58.683 53.79c-0.793 0.91-1.566 1.83-2.347 2.77l-228.04-182.16" fill="#100f0d"/><path d="m784.12 1050.2 0.809-10.53 195.16 114.88c-0.231 0.41-0.442 0.84-0.664 1.25l-195.31-105.6" fill="#100f0d"/><path d="m855.42 1128.8-1.621-12.16 124.56 41.16c-0.582 1.09-1.164 2.2-1.718 3.32l-121.22-32.32" fill="#100f0d"/><path d="m817.34 1095.5v14.58l-42.945 2.43 25.117-24.3 17.828 7.29" fill="#100f0d"/><path d="m707.14 1034-24.313 15.39-8.91-29.17 24.766-34.041 1.16-1.598 8.105 22.679 15.391 0.81 9.722 10.53 4.868 15.4-23.5 8.92-7.289-8.92" fill="#100f0d"/><path d="m613.15 1089-2.433-12.16 363.31 89.68c-0.3 0.68-0.586 1.37-0.875 2.04l-360-79.56" fill="#100f0d"/><path d="m488.36 1128-0.808-10.54 480.38 64.85c-0.082 0.24-0.157 0.47-0.235 0.7l-479.34-55.01" fill="#100f0d"/><path d="m666.62 1173.3v-9.73l69.687-6.47-44.57 34.83-25.117-18.63" fill="#100f0d"/><path d="m847.32 1207.4-1.75 3.14-44.785 1.8-9.379-15.48 25.934-18.63 28.351-4.86 8.918 14.58h17.825l-1.903 21.59-15.488 0.61-7.723-2.75" fill="#100f0d"/><path d="m870 1215.5-5.844-2.09 6.067-0.41-0.223 2.5" fill="#100f0d"/><path d="m839.22 1221.9-31.602 1.61-3.769-6.2 39.359-2.6-3.988 7.19" fill="#100f0d"/><path d="m870.23 1213-6.067 0.41-20.953 1.38-39.359 2.6-192.32 12.69 9.723-10.53 179.54-7.22 44.785-1.8 9.473-0.39 15.488-0.61 92.18-3.7 0.402 1.04-92.886 6.13" fill="#100f0d"/><path d="m1004.5 1204.1-40.377 2.65 4.676-1.22 35.701-1.43" fill="#100f0d"/><path d="m823.82 1260-12.152-10.53 192.04-29.98-179.88 40.51" fill="#100f0d"/><path d="m879.73 1297.3 3.242-8.1 128.02-61.59-131.26 69.69" fill="#100f0d"/><path d="m908.09 1324 7.297-14.58 49.133-33c0.351 1.42 0.703 2.83 1.093 4.23l-57.523 43.35" fill="#100f0d"/><path d="m1026.4 1234.9-24.64 18.56-2.773-0.16 27.413-18.4" fill="#100f0d"/><path d="m1181.2 1237.3v-31.14l-25.28-17.01-0.92-0.62-20.09-13.51-63.13 53.86-44.61-38.72-58.341 15.36-4.676 1.22-0.949 0.26-0.071-0.19-0.402-1.04-0.504-1.32c1.352-7.37 3.215-14.55 5.492-21.51 0.078-0.23 0.153-0.46 0.235-0.7 1.543-4.66 3.289-9.21 5.218-13.65 0.289-0.67 0.575-1.36 0.875-2.04 0.836-1.85 1.715-3.68 2.614-5.49 0.554-1.12 1.136-2.23 1.718-3.32 0.356-0.67 0.703-1.35 1.067-2.01 0.222-0.41 0.433-0.84 0.664-1.25 4.828-8.68 10.433-16.79 16.672-24.28 0.781-0.94 1.554-1.86 2.347-2.77 26.511-30.3 64.051-49.21 105.69-49.21 40.41 0 76.96 17.82 103.31 46.55 0.57 0.63 1.14 1.26 1.71 1.89 3.31 3.73 6.44 7.64 9.4 11.7 0.78 1.08 1.55 2.18 2.31 3.28 1.91 2.77 3.75 5.58 5.48 8.49 0.53 0.88 1.03 1.78 1.53 2.67 3.27 5.69 6.2 11.61 8.77 17.75 0.73 1.72 1.41 3.45 2.07 5.19 1.66 4.4 3.18 8.89 4.48 13.48l-21.44 7.68-4.74 8.08-0.07 0.11-3.6 6.13-23.04 18.29-0.08 0.07-9.71 7.72" fill="#100f0d"/><path d="m1104.8 1392.2c-65.64 0-121.13-46.98-139.19-111.51-0.39-1.4-0.742-2.81-1.093-4.23-0.18-0.7-0.375-1.39-0.539-2.08l20.253-21.89 14.747 0.82 2.773 0.16 42.23 2.38 58.93-29.46 33.66 40.39-15.15 37.04 46.29-5.04 6.74 27.77 28.19-0.33 5.59-0.06 23.45-0.28c-3.1 4.72-6.57 9.22-10.31 13.54-1.07 1.22-2.2 2.41-3.31 3.6-8.44 9.03-18.19 17.02-28.87 23.83-0.72 0.45-1.43 0.91-2.16 1.36l-1.08 0.69c-9.31 5.62-19.27 10.31-29.55 13.99-1.46 0.52-2.91 1.05-4.39 1.54-0.29 0.09-0.58 0.2-0.87 0.3-15.11 4.84-30.85 7.47-46.34 7.47" fill="#100f0d"/></g></g>
</svg>
