<?xml version="1.0" encoding="UTF-8"?>
<svg viewBox="0 0 70 70" xml:space="preserve" xmlns="http://www.w3.org/2000/svg"><g transform="matrix(1.25,0,0,-1.25,0,70)"><g transform="scale(.022)"><path d="m2246.9 1220.1c-84.56-84.54-942.23-942.24-1026.8-1026.8-84.55 84.559-942.22 942.26-1026.8 1026.8 84.547 84.56 942.22 942.25 1026.8 1026.8 84.55-84.54 942.23-942.23 1026.8-1026.8zm-2246.9 0 1220.1-1220.1 1220.1 1220.1-1220.1 1220.1-1220.1-1220.1" fill="#ef2f32"/><path d="m1184 1829.6-0.4-120.73-9.33-90.34-13.75-55.5-28.78-64.83-32.4 65.23-8.92 59.14-18.64 47.81-27.55 29.17-41.73 10.13 10.54-53.87-11.36-55.12-8.492-70.88-0.809-71.71 18.231-54.29-37.274 23.9-51.856 74.54-44.964 45.78 8.91-92.77 0.804-71.3 7.696-61.99 23.09-62.39 29.582-62.78-73.328 10.53-40.922 31.58-25.922 34.45-39.707 40.92 9.312-62.79 64.012-223.22 44.566-79.831 73.735-53.058 104.94-43.36 165.66-10.543-77.75 14.192-63.2 30.789-64.02 76.172-39.29 90.329 40.92-29.97 38.09-13.37 69.67-8.09-38.48 49.41-21.08 36.06-15.39 44.97 10.13 42.53 2.43 44.98 17.42-45.38 24.72-35.65 73.33-40.51-10.54 61.18-0.81 46.99 43.35 124.37v86.7l43.3-42.95 41.3-62.39 20.69-86.28-0.42-128.84 34.84 36.06 62 40.92 21.06 47.39v-89.52l-22.69-67.26-26.34-36.04-27.56-27.56 47.81-0.41 42.15 11.75 49.01 31.21-50.23-94.008-66.05-64.821-38.07-28.351-27.41-15.66h58.23l63.4 11.05 66.33 32.43 62.64 43.5 52.34 83.27 32.43 106.15 10.23 151.98-11.71-53.96-40.53-28-73.72-21.36 41.27 61.17 22.12 43.49 20.54 85.24-9.77 60.44-22.82 80.18-34.52-67.1-41.48-41.48-48.74-27.57 28.11 69.32 0.86 91.62-10.58 91.04-44.28 86.32-11.14-106.37-21.71-76-30.91-31.2-32.3-11.97 10.02 64.61-7.78 56.79-43.73 123.9-65.15 121.68-21.85 105.88-22.29-66.44-11.34-49.43" fill="#100f0d"/><path d="m873.07 691.49h731.64v75.141h-731.64v-75.141z" fill="#100f0d"/></g></g></svg>
