<?xml version="1.0" encoding="UTF-8"?>
<svg viewBox="0 0 70 70" xml:space="preserve" xmlns="http://www.w3.org/2000/svg"><g transform="matrix(1.25,0,0,-1.25,0,70)"><g transform="scale(.022)"><path d="m2246.9 1220.1c-84.56-84.54-942.23-942.24-1026.8-1026.8-84.55 84.559-942.22 942.26-1026.8 1026.8 84.547 84.56 942.22 942.25 1026.8 1026.8 84.55-84.54 942.23-942.23 1026.8-1026.8zm-2246.9 0 1220.1-1220.1 1220.1 1220.1-1220.1 1220.1-1220.1-1220.1" fill="#ef2f32"/><path d="m813.52 1222.4h805.8" fill="none" stroke="#100f0d" stroke-width="50"/><path d="m922 1013.3 99.184 57.33 4.65 244.75-122.42 66.63s-18.601 12.4-44.937 4.66c-9.297-3.12-21.696-6.21-21.696-6.21s66.633 55.78 79.039 51.15c12.391-4.65 99.178-46.51 99.178-46.51s-9.31 65.09-32.549 83.69c-23.246 18.61-113.13 89.88-113.13 89.88v17.06l122.42-74.38s4.653 71.26-20.14 113.11c-24.801 41.84-43.391 79.04-43.391 79.04l7.75 6.2 60.434-92.98 20.143 63.54 12.4 3.09s-15.5-89.88-4.64-117.77c10.85-27.89 51.13-179.76 51.13-179.76l60.43 86.78s1.56 35.64-1.54 60.43c-3.1 24.8-7.75 139.47-7.75 139.47h10.85l17.05-125.53 97.58 113.13v-12.39s-96.04-120.88-91.39-147.23c4.66-26.35 9.31-41.83-7.75-79.03-17.05-37.19-27.89-63.54-27.89-63.54s51.14 60.44 74.38 65.09c23.26 1.56 54.2-1.55 75.9 17.05 21.69 18.6 74.39 77.49 74.39 77.49l-82.13-127.08s-38.71-1.55-54.21-18.6c-15.49-17.04-79.03-89.88-79.03-89.88v-167.26l105.36-52.69-128.61-18.6-30.99-44.928-41.85 35.638-116.22-10.84" fill="#100f0d"/><path d="m922 1013.3 99.184 57.33 4.65 244.75-122.42 66.63s-18.601 12.4-44.937 4.66c-9.297-3.12-21.696-6.21-21.696-6.21s66.633 55.78 79.039 51.15c12.391-4.65 99.178-46.51 99.178-46.51s-9.31 65.09-32.549 83.69c-23.246 18.61-113.13 89.88-113.13 89.88v17.06l122.42-74.38s4.653 71.26-20.14 113.11c-24.801 41.84-43.391 79.04-43.391 79.04l7.75 6.2 60.434-92.98 20.143 63.54 12.4 3.09s-15.5-89.88-4.64-117.77c10.85-27.89 51.13-179.76 51.13-179.76l60.43 86.78s1.56 35.64-1.54 60.43c-3.1 24.8-7.75 139.47-7.75 139.47h10.85l17.05-125.53 97.58 113.13v-12.39s-96.04-120.88-91.39-147.23c4.66-26.35 9.31-41.83-7.75-79.03-17.05-37.19-27.89-63.54-27.89-63.54s51.14 60.44 74.38 65.09c23.26 1.56 54.2-1.55 75.9 17.05 21.69 18.6 74.39 77.49 74.39 77.49l-82.13-127.08s-38.71-1.55-54.21-18.6c-15.49-17.04-79.03-89.88-79.03-89.88v-167.26l105.36-52.69-128.61-18.6-30.99-44.928-41.85 35.638-116.22-10.84z" fill="none" stroke="#100f0d" stroke-width="40"/><path d="m816.63 867.63s141.01 41.84 164.26 24.801c30.989 13.941 257.23 110.03 257.23 103.82 0-6.211 260.33 80.59 260.33 80.59l94.52-68.18-89.87-43.398 120.87-10.864-32.53-43.386h66.63l1.55-48.032-842.99 4.649" fill="#100f0d"/><path d="m816.63 867.63s141.01 41.84 164.26 24.801c30.989 13.941 257.23 110.03 257.23 103.82 0-6.211 260.33 80.59 260.33 80.59l94.52-68.18-89.87-43.398 120.87-10.864-32.53-43.386h66.63l1.55-48.032-842.99 4.649z" fill="none" stroke="#100f0d" stroke-width="40"/><path d="m1131.2 990.04s40.29 1.563 58.88 9.313c29.5 12.288 77.46 32.538 105.35 72.828 28.85 41.66 131.72 216.86 272.74 202.91-7.74-18.59-32.55-58.89-32.55-58.89l100.74 31s1.56-133.18-189.07-218.41c-88.33-30.989-106.92-32.54-114.67-43.392-7.74-10.839-43.38-65.078-43.38-65.078l-158.04 69.719" fill="#fff"/><path d="m1131.2 990.04s40.29 1.563 58.88 9.313c29.5 12.288 77.46 32.538 105.35 72.828 28.85 41.66 131.72 216.86 272.74 202.91-7.74-18.59-32.55-58.89-32.55-58.89l100.74 31s1.56-133.18-189.07-218.41c-88.33-30.989-106.92-32.54-114.67-43.392-7.74-10.839-43.38-65.078-43.38-65.078l-158.04 69.719z" fill="none" stroke="#100f0d" stroke-width="50"/><path d="m1543.4 1169c0 8.12 7.64 14.69 17.05 14.69s17.04-6.57 17.04-14.69c0-8.13-7.63-14.73-17.04-14.73s-17.05 6.6-17.05 14.73" fill="#100f0d"/></g></g></svg>
