<?xml version="1.0" encoding="UTF-8"?>
<svg viewBox="0 0 70 70" xml:space="preserve" xmlns="http://www.w3.org/2000/svg"><g transform="matrix(1.25,0,0,-1.25,0,70)"><g transform="scale(.022)"><path d="m2246.9 1220.1c-84.56-84.54-942.23-942.24-1026.8-1026.8-84.55 84.559-942.22 942.26-1026.8 1026.8 84.547 84.56 942.22 942.25 1026.8 1026.8 84.55-84.54 942.23-942.23 1026.8-1026.8zm-2246.9 0 1220.1-1220.1 1220.1 1220.1-1220.1 1220.1-1220.1-1220.1" fill="#ef2f32"/><path d="m640.32 1123.7c17.899-66.71 65.243-111.96 105.74-101.09l791.77 212.5c24.86 6.68 41.35 33.01 46.24 67.82l0.01-0.07c2.62 17.72 15.44 33.08 33.84 38.03l167.68 45.09c18.66 5.01 28.71 28.05 22.43 51.45-6.26 23.38-26.48 38.26-45.14 33.25l-167.69-45.02c-18.53-4.98-37.46 2.04-48.54 16.27l0.02-0.07c-21.59 27.41-48.91 41.78-73.68 35.14l-791.77-212.8c-40.492-10.9-58.812-73.79-40.914-140.5" fill="#100f0d"/></g></g></svg>
