<?xml version="1.0" encoding="UTF-8"?>
<svg viewBox="0 0 70 70" xml:space="preserve" xmlns="http://www.w3.org/2000/svg"><g transform="matrix(1.25,0,0,-1.25,0,70)"><g transform="scale(.022)"><path d="m2246.9 1220.1c-84.56-84.54-942.23-942.24-1026.8-1026.8-84.55 84.559-942.22 942.26-1026.8 1026.8 84.547 84.56 942.22 942.25 1026.8 1026.8 84.55-84.54 942.23-942.23 1026.8-1026.8zm-2246.9 0 1220.1-1220.1 1220.1 1220.1-1220.1 1220.1-1220.1-1220.1" fill="#ef2f32"/><path d="m1222.1 990.24c-75.09 0-135.96-64.328-135.96-143.65 0-79.352 60.87-143.65 135.96-143.65 75.08 0 135.95 64.297 135.95 143.65 0 79.32-60.87 143.65-135.95 143.65" fill="#100f0d"/><path d="m1044.9 1742.2c0-1.53 0.09-3.07 0.17-4.58h-0.1l0.15-1.01c0.28-3.93 0.85-7.8 1.71-11.62l84.15-567.99c2.94-48.37 42.59-86.67 91.1-86.67 48.23 0 87.69 37.87 91 85.86l84.01 567.89c1.04 4.32 1.69 8.74 1.96 13.19l0.04 0.35h-0.04c0.1 1.51 0.19 3.05 0.19 4.58 0 64.41-79.32 116.61-177.16 116.61-97.86 0-177.18-52.19-177.18-116.61" fill="#100f0d"/></g></g></svg>
