<?xml version="1.0" encoding="UTF-8"?>
<svg viewBox="0 0 70 70" xml:space="preserve" xmlns="http://www.w3.org/2000/svg"><g transform="matrix(1.25,0,0,-1.25,0,70)"><g transform="scale(.022)"><path d="m2246.9 1220.1c-84.56-84.54-942.23-942.24-1026.8-1026.8-84.55 84.559-942.22 942.26-1026.8 1026.8 84.547 84.56 942.22 942.25 1026.8 1026.8 84.55-84.54 942.23-942.23 1026.8-1026.8zm-2246.9 0 1220.1-1220.1 1220.1 1220.1-1220.1 1220.1-1220.1-1220.1" fill="#ef2f32"/><path d="m1745.2 988.36 18.35 8.7c2.88 1.339 5.52 2.601 7.99 3.781 1.56 7.42 2.56 12.22 2.61 12.4 2.04 9.72-4.16 19.26-13.88 21.32-9.7 2.05-19.24-4.17-21.29-13.88-0.71-3.34-17.31-81.981-20.97-103.91-2.12-12.758-17.43-21.329-30.41-21.329-21.12 0-41.7 24.2-42.85 33.329-6.98 55.66-40.56 82.78-67.47 95.73l-173.59 83.48c-8.34-9.07-17.85-17.92-28.46-26.2l186.46-89.671c27.86-13.379 43.36-35.57 47.39-67.82 3.19-25.48 38.34-64.801 78.52-64.801 28.16 0 60.52 19.223 65.88 51.371 1.43 8.61 5.08 27.012 8.94 45.879l-1.6-0.769-15.62 32.39" fill="#100f0d"/><path d="m1606.1 1049.9 8.87-4.34c10.49-5.66 17.05-7.98 39.91-7.98 15.87 0 29.95 5.27 43.56 10.36 15.06 5.62 30.62 11.45 50.93 11.45 24.05 0 54.72-16.91 54.72-30.17 0-10.76-1.31-13.45-32.55-28.37-2.47-1.18-5.11-2.442-7.99-3.781l-18.35-8.7 15.62-32.39 1.6 0.769 16.43 7.793c38.14 17.93 61.19 28.739 61.19 64.679 0 40.37-53.69 66.12-90.67 66.12-26.8 0-47.17-7.61-63.51-13.73-11.6-4.34-21.61-8.08-30.98-8.08-16.03 0-17.61 0.85-22.83 3.66l-11.98 5.83c-12.64 5.33-117.59 55.36-179.24 84.87-3.33-10.3-8.63-21.24-15.74-32.31 36.68-17.54 166.05-79.38 181.01-85.68" fill="#100f0d"/><path d="m1450.4 1301.7-5.33-3.22v-31.65c29.05 13.29 140.63 64.41 168.07 78.52 31.05 15.98 54.64 50.19 68.75 70.64l5.42 7.73c9.34 12.86 28.83 27.89 52.96 27.89 7.95 0 11.38-2.6 13.27-4.56 11.58-11.94 10.46-46.9 9.66-72.43l-0.45-20.25c-0.2-9.92 7.65-17.75 17.57-17.96s18.15 8.04 18.38 17.96l0.16 7.22c-2.76 7.54-9.49 18.13-21.44 23.98l15.75 32.3c2.08-1.01 4.08-2.14 6.01-3.31-1.32 22.33-6.02 43.26-19.8 57.5-9.98 10.27-23.13 15.49-39.11 15.49-37.59 0-67.03-22.04-82.05-42.68l-5.92-8.48c-11.39-16.5-32.58-47.23-55.62-59.09-16.57-8.52-65.39-31.24-107.03-50.46-9.39-6.83-19.23-12.85-28.76-18.68l-10.49-6.46" fill="#100f0d"/><path d="m1777.4 1385.6c11.95-5.85 18.68-16.44 21.44-23.98 1-2.75 1.5-5.1 1.5-6.63v-34.6c0-9.82-2.85-21.51-16.41-21.51-11.15 0-25.39 6.94-39.14 13.65-15.86 7.74-30.85 15.05-46.18 15.05l-2.59 0.1c-8.97 0.42-27.63 1.3-53.9-10.99l-0.51-0.25-196.56-99.55v-25.08c0-5.08-0.71-10.54-2.06-16.26 42.22 21.39 213.76 108.26 214.47 108.62 18.17 8.48 29.4 7.97 36.85 7.61l4.3-0.14c7.03 0 18.92-5.79 30.42-11.41 16.61-8.1 35.45-17.29 54.9-17.29 30.83 0 52.36 23.63 52.36 57.45v34.6c0 18.79-12.99 44.97-37.13 59.6-1.93 1.17-3.93 2.3-6.01 3.31l-15.75-32.3" fill="#100f0d"/><path d="m1378.2 1383.9c59.91 0 85.12 75.22 85.12 94.58 0 19.37-15.3 27.47-24.32 27.47h-113.94c-12.16 0-41.44-9.9-41.44-28.81 0-7.1 5.31-22.66 16.76-37.82 19.72-26.14 36.85-55.42 77.82-55.42" fill="#100f0d"/><path d="m994.38 1812.9c-10.57-10.39-21.52-21.15-33.887-32.44l-16.176-14.69c-48.882-44.27-84.199-76.25-84.199-110.53 0-57.5 35.461-108.72 61.375-146.13l4.586-6.79c2.34 16.65 4.633 29.9 5.899 34.94-3.383 15.41-5.821 25.79-7.578 33.01-15.391 26.09-28.34 55.45-28.34 84.97 0 18.34 35.168 50.18 72.383 83.89l16.285 14.79c12.855 11.73 24.037 22.72 34.847 33.32 24.62 24.2 44.08 43.31 66.71 54.78 51.03 25.87 97.34 35.4 145.74 35.4 99.94 0 148.48-41.68 209.91-97.63l32.59-29.22 12.15-10.54c39.09-33.86 76.02-65.85 76.02-84.79 0-23.5-8.22-46.9-19.33-68.63-1.17-7.34-3.35-16.98-7.36-34.84 0 0-6.98-31.28-8.49-38.07 0.8-3.21 1.97-8.08 3.27-14.16l6.46 9.57c25.91 37.41 61.38 88.63 61.38 146.13 0 35.36-37.08 67.5-88.41 111.96l-12.08 10.48-32 28.69c-61.84 56.31-120.25 109.5-234.11 109.5-53.51 0-106.5-13.66-161.99-41.8-27.6-13.98-49.87-35.86-75.655-61.17" fill="#100f0d"/><path d="m1536 1551.8c4.01 17.86 6.19 27.5 7.36 34.84 1.28 8.02 1.37 13.28 1.37 23.44 0 38.7-10.7 55.4-50.21 96.69l-25.98-24.84c37.03-38.69 40.25-46.95 40.25-71.85 0-15.48 0-15.48-7.86-50.39l-10.43-46.78 1.21-4.27c0.12-0.44 12.2-44.87 12.2-87.49 0-44.54-27.27-61.2-61.78-82.31l-10.83-6.68-37.06-22.34c-39.13-22.97-58.66-33.12-58.66-73.25v-22.93c0-13.31-50.3-47.41-103.91-47.41-49.23 0-103.41 34.11-105.39 46.4 0.02 16.44 0.71 23.58 0.71 23.58 0 39.34-19.07 50.42-57.05 72.46-10.58 6.15-23.74 13.78-39.24 23.49l-10.82 6.68c-34.513 21.11-59.157 33.08-59.157 82.31 0 51.84 12.343 70.37 12.343 86.37 0 15.98-17.265 78.34-17.265 88.06 0 1.25 0.144 11.78 0.144 11.78 0 23.32 2.973 42.78 39.016 74.82 2.922 2.6 7.359 10.52 3.812 14.91-3.554 4.38-5.003 6.21-9.156 11.12-4.144 4.92-15.055 3.92-18.265 1.07-42.629-37.88-51.348-66.57-51.348-101.92 0 0-0.149-10.51-0.149-12.08 0-9.59-0.402-4.75 4.54-24.98 1.757-7.22 4.195-17.6 7.578-33.01-1.266-5.04-3.559-18.29-5.899-34.94-3.691-26.28-7.476-61.06-7.476-85.49 0-33.53 15.441-57.19 35.644-75.57 24.59-11.42 49.988-23.09 68.718-31.69h26.68v-12.19c1.38-0.64 2.17-1.02 2.28-1.06l-2.28-5v-12.45c0.76-0.45 1.53-0.88 2.25-1.31 36.27-21.05 39.03-23.52 39.15-39.95-0.52-4.43-0.68-11.69-0.68-25.21 0-44.55 86.8-82.14 141.31-82.14 60.49 0 140.58 40.89 140.58 83.35v22.93c0 18.11 1.92 19.78 36.84 40.3v32.73h35.96v-11.11l5.33 3.22 10.49 6.46c9.53 5.83 19.37 11.85 28.76 18.68 27.07 19.74 50.22 46.25 50.22 94.3 0 30.03-5.14 59.9-9.07 78.42-1.3 6.08-2.47 10.95-3.27 14.16 1.51 6.79 8.49 38.07 8.49 38.07" fill="#100f0d"/><path d="m1014.1 1184.6c0.84-7.29 2.94-15.19 6.18-23.41 7.33 3.51 14.24 6.8 20.59 9.85-2.25 1.14-12.18 6.18-26.77 13.56" fill="#100f0d"/><path d="m1445 1216.9v92.73h-35.96v-117.81c0-23.78-32.6-74.57-91.52-104.21l-1.92-0.95c-28.52-14.34-64.01-30.75-78.7-30.75-13.52 0-59.25 13.35-95.78 31.7-58.94 29.64-91.53 80.43-91.53 104.21v99.56l-12.63-27.69c-1.38 0.63-10.26 4.68-23.32 10.65v-49.17l17.16-8.7 10.46-45.17c0.93 0.44 1.89 0.89 2.8 1.33l15.52-32.41c-1.45-0.7-9.71-4.65-22.03-10.55 6.61-9.47 14.5-18.95 23.62-28.09l15.41 7.26 34.66-23.4-20.03-9.45c10.37-7.46 21.63-14.38 33.77-20.49 29.67-14.91 85.74-36.98 111.92-36.98 23.22 0 58.01 17.51 94.84 36.03l1.92 0.95c15.24 7.66 29.13 16.62 41.53 26.31 10.61 8.28 20.12 17.13 28.46 26.2 8.32 9.06 15.49 18.37 21.4 27.59 7.11 11.07 12.41 22.01 15.74 32.31 0.84 2.59 1.56 5.14 2.15 7.65 1.35 5.72 2.06 11.18 2.06 16.26v25.08" fill="#100f0d"/><path d="m1049.6 1309.6h-26.68c12.82-5.86 22.5-10.29 26.68-12.19v12.19" fill="#100f0d"/><path d="m1076.6 1108.8-15.41-7.26-136.52-64.33-26.886-12.72c-26.934-12.95-60.508-40.07-67.477-95.73-1.148-9.129-21.742-33.329-42.859-33.329-12.977 0-28.301 8.571-30.418 21.329-3.66 21.929-20.254 100.57-20.965 103.91-2.059 9.71-11.586 15.93-21.301 13.88-9.711-2.06-15.922-11.6-13.859-21.32 0.039-0.18 1.047-4.98 2.593-12.4 2.473-1.18 5.122-2.442 7.985-3.781l18.351-8.7-15.605-32.39-1.609 0.769c3.859-18.867 7.511-37.269 8.949-45.879 5.359-32.148 37.703-51.371 65.879-51.371 40.172 0 75.324 39.321 78.519 64.801 4.043 32.25 19.539 54.441 47.383 67.82l26.527 12.551 151.36 71.3 20.03 9.45-34.66 23.4" fill="#100f0d"/><path d="m729.86 988.36-18.351 8.7c-2.863 1.339-5.512 2.601-7.985 3.781-31.234 14.92-32.546 17.61-32.546 28.37 0 13.26 30.671 30.17 54.714 30.17 20.321 0 35.891-5.83 50.942-11.45 13.621-5.09 27.683-10.36 43.555-10.36 22.855 0 29.414 2.32 39.914 7.98l8.851 4.34c13.856 5.83 121.32 57.13 168.65 79.75 12.32 5.9 20.58 9.85 22.03 10.55l-15.52 32.41c-0.91-0.44-1.87-0.89-2.8-1.33l0.1-0.46s-0.19 0.09-0.51 0.26c-6.35-3.05-13.26-6.34-20.59-9.85-62.349-29.81-153.57-73.27-165.31-78.21l-11.981-5.83c-5.214-2.81-6.793-3.66-22.835-3.66-9.368 0-19.383 3.74-30.958 8.08-16.363 6.12-36.714 13.73-63.539 13.73-36.961 0-90.656-25.75-90.656-66.12 0-35.94 23.035-46.749 61.192-64.679l16.418-7.793 1.609-0.769 15.605 32.39" fill="#100f0d"/><path d="m697.68 1385.6c-11.961-5.85-18.68-16.45-21.446-23.99l0.161-7.21c0.226-9.92 8.449-18.17 18.371-17.96s17.796 8.04 17.578 17.96l-0.434 20.25c-0.816 25.53-1.922 60.48 9.645 72.43 1.902 1.96 5.336 4.56 13.269 4.56 24.137 0 43.617-15.03 52.981-27.89l5.414-7.73c14.086-20.45 37.687-54.66 68.75-70.64 24.109-12.41 109.78-51.83 151.72-71.05 13.06-5.97 21.94-10.02 23.32-10.65l12.63 27.69 2.28 5c-0.11 0.04-0.9 0.42-2.28 1.06-4.18 1.9-13.86 6.33-26.68 12.19-18.73 8.6-44.128 20.27-68.718 31.69-32.312 15-63.246 29.56-75.828 36.02-23.039 11.86-44.23 42.59-55.617 59.09l-5.926 8.48c-15.016 20.64-44.449 42.68-82.047 42.68-15.976 0-29.125-5.22-39.086-15.49-13.773-14.23-18.496-35.17-19.824-57.5 1.941 1.17 3.93 2.3 6.012 3.31l15.754-32.3" fill="#100f0d"/><path d="m1041.4 1170.8-0.1 0.46-10.46 45.17-17.16 8.7-180.47 91.41-0.254 0.12c-26.281 12.29-44.934 11.41-53.903 10.99l-2.605-0.1c-15.316 0-30.305-7.31-46.172-15.05-13.762-6.71-27.992-13.65-39.133-13.65-13.558 0-16.414 11.69-16.414 21.51v34.6c0 1.53 0.492 3.88 1.492 6.62 2.766 7.54 9.485 18.14 21.446 23.99l-15.754 32.3c-2.082-1.01-4.071-2.14-6.012-3.31-24.141-14.63-37.121-40.81-37.121-59.6v-34.6c0-33.82 21.535-57.45 52.363-57.45 19.442 0 38.27 9.19 54.891 17.29 11.504 5.62 23.394 11.41 30.414 11.41l4.309 0.14c7.445 0.36 18.699 0.87 36.859-7.61 0.633-0.32 136.96-69.37 196.5-99.52 14.59-7.38 24.52-12.42 26.77-13.56 0.32-0.17 0.51-0.26 0.51-0.26" fill="#100f0d"/><path d="m1080.5 1383.9c40.98 0 58.1 29.28 77.83 55.42 11.44 15.16 16.74 30.72 16.74 37.82 0 18.91-29.26 28.81-41.43 28.81h-113.95c-9 0-24.304-8.1-24.304-27.47 0-19.36 25.224-94.58 85.114-94.58" fill="#100f0d"/><path d="m1198.7 1236.3c28 0 18.57 11.31 42.47 11.31 19.52 0 12.91-11.01 39.34-11.01 24.55 0 30.52 18.56 30.52 26.12 0 11.64-13.19 19.12-19.19 34.92-5.99 15.74-17.63 73.94-53.18 73.94-13.07 0-20.62-5.33-30.53-16.98-16.04-18.88-17.32-50.63-27.37-62.94-9.74-11.95-13.52-24.78-13.52-31.45 0-7.24 3.46-23.91 31.46-23.91" fill="#100f0d"/></g></g></svg>
