<?xml version="1.0" encoding="UTF-8"?>
<svg enable-background="new 0 0 200 50" version="1.1" viewBox="0 0 200 50" xml:space="preserve" xmlns="http://www.w3.org/2000/svg">
<style type="text/css">
	.st0{fill:#111827;}
	.st1{fill:#4F46E5;}
</style>
<path class="st0" d="m19.3 49.6c-4.1 0.1-8.3-1-11.8-3-3.1-2-5.5-5-6.9-8.7l7-4c1.9 5.3 5.8 8.1 12 8.1 2.8 0 5.1-0.6 6.8-1.7 1.6-1.1 2.3-2.7 2.2-4.4 0.1-1.8-0.9-3.4-2.4-4.4-2.6-1.5-5.5-2.6-8.5-3.4-3.5-1-7.1-2.4-10.1-4.3-3-2.3-4.6-5.4-4.6-9.8-0.3-4 1.4-7.7 4.4-10.2s7.1-3.8 10.9-3.7c3.5-0.1 7.2 0.9 10.1 2.7s5.2 4.5 6.8 7.8l-6.9 3.8c-2-4.4-5.3-6.8-10.1-6.8-2-0.1-3.8 0.5-5.4 1.6-1.4 1-2.1 2.6-2.1 4.3-0.1 1.7 0.7 3.2 2.1 4.1 1.4 1 3.8 2.1 7.6 3.2 2.3 0.8 3.5 1.2 3.9 1.4 0.6 0.2 1.8 0.6 3.5 1.4 1.3 0.5 2.4 1.1 3.4 1.9 3.5 2.7 5.1 6 4.9 9.9 0.2 3.9-1.6 7.9-4.6 10.4-2.9 2.5-7.1 3.8-12.2 3.8z"/>
<path class="st0" d="m93.4 48.9v-48.1h8v48.2l-8-0.1z"/>
<path class="st0" d="M149,0.8h8.6V49h-8V14.5L134.9,39h-1l-14.7-24.3v34.5h-8V0.8h8.6L134.3,25L149,0.8z"/>
<path class="st0" d="m182.5 49.6c-4.1 0.1-8.3-1-11.8-3-3.1-2-5.5-5-6.9-8.7l6.9-3.9c1.9 5.3 5.8 8.1 12 8.1 2.8 0 5.1-0.6 6.8-1.7 1.5-1.1 2.3-2.7 2.3-4.4 0.1-1.8-0.9-3.4-2.4-4.4-2.6-1.5-5.5-2.6-8.5-3.4-3.5-1-7.1-2.4-10.1-4.3-3-2.2-4.6-5.3-4.6-9.7-0.2-3.8 1.5-7.7 4.4-10.1 3-2.5 7-3.8 10.9-3.7 3.5-0.1 7.2 0.9 10.1 2.7 2.8 1.9 5.2 4.5 6.8 7.8l-6.8 3.7c-2-4.4-5.3-6.8-10.1-6.8-2-0.1-3.8 0.5-5.4 1.6-1.4 1-2.1 2.6-2.1 4.3-0.1 1.7 0.7 3.2 2.1 4.1 1.4 1 3.8 2.1 7.6 3.2 2.3 0.8 3.5 1.2 3.9 1.4 0.6 0.2 1.8 0.6 3.5 1.4 1.3 0.5 2.4 1.1 3.4 1.9 3.5 2.7 5.1 6 4.9 9.9 0.2 3.9-1.6 7.9-4.6 10.4-3.2 2.3-7.2 3.6-12.3 3.6z"/>
<path class="st0" d="m65.8 7.6c2.8 0 5.6 0.7 8.2 2.1 2.4 1.3 4.2 3.2 5.5 5.6l7-3.9c-2.1-3.4-5-6.3-8.6-8.4s-7.9-3-12.1-3c-7.4 0-13.2 2.4-17.8 7.3l7.1 3.9c2.9-2.6 6.7-3.7 10.7-3.6zm8.1 32.5c-2.4 1.4-5.3 2.1-8.3 2.1-4.6 0.2-9.2-1.6-12.4-4.8-3.1-3.2-4.8-7.8-4.6-12.3 0-2.4 0.4-5 1.4-7.5l-6.9-3.9c-1.7 3.4-2.5 7.5-2.4 11.3-0.3 13.5 10.4 24.6 23.7 24.9h1.3c4.1 0.1 8.4-1 12.1-3 3.5-2 6.7-4.8 8.6-8.5l-7-3.8c-1.3 2.1-3.1 4.2-5.5 5.5z"/>
<path class="st1" d="m79.5 26.8c-0.9 7-6.9 12.2-13.9 12.2-7.8 0-14-6.2-14-14 0-0.6 0-1.2 0.1-1.8 3.7 2.8 8.8 3.6 13.2 2.1 0.4-0.1 0.9-0.3 1.3-0.5 4.7-2 9.6-1.2 13.3 2z"/>
<circle class="st1" cx="62.1" cy="14.5" r="1.1"/>
<circle class="st1" cx="65.3" cy="18" r="1.6"/>
<circle class="st1" cx="59.1" cy="20.8" r="2.1"/>
</svg>
