<?xml version="1.0" standalone="no"?>
<!DOCTYPE svg PUBLIC "-//W3C//DTD SVG 20010904//EN"
 "http://www.w3.org/TR/2001/REC-SVG-20010904/DTD/svg10.dtd">
<svg version="1.0" xmlns="http://www.w3.org/2000/svg"
 width="700.000000pt" height="700.000000pt" viewBox="0 0 700.000000 700.000000"
 preserveAspectRatio="xMidYMid meet">
<metadata>
Created by potrace 1.14, written by Peter Selinger 2001-2017
</metadata>
<g transform="translate(0.000000,700.000000) scale(0.100000,-0.100000)"
fill="#000000" stroke="none">
<path d="M1109 6996 c-2 -2 -28 -7 -57 -10 -143 -15 -342 -90 -485 -182 -295
-190 -498 -502 -554 -849 -10 -65 -10 -4856 0 -4915 66 -372 276 -677 598
-871 92 -55 267 -124 364 -143 17 -4 46 -10 65 -13 57 -12 4838 -14 4895 -2
28 5 64 11 80 14 45 6 152 39 224 68 328 135 596 429 704 772 25 80 29 100 47
205 5 32 8 1075 7 2465 l-2 2410 -24 95 c-13 52 -27 99 -32 104 -5 6 -9 18 -9
28 0 28 -73 179 -126 261 -69 106 -143 190 -254 288 -37 32 -177 123 -235 151
-55 27 -179 76 -213 83 -12 3 -32 7 -44 10 -140 34 -125 34 -2559 34 -1312 1
-2388 -1 -2390 -3z"/>
</g>
</svg>
